<?xml version="1.0" encoding="utf-8"?>
<!-- Generator: Adobe Illustrator 26.5.0, SVG Export Plug-In . SVG Version: 6.00 Build 0)  -->
<svg version="1.1" id="Layer_1" xmlns="http://www.w3.org/2000/svg" xmlns:xlink="http://www.w3.org/1999/xlink" x="0px" y="0px"
	 viewBox="0 0 448 512" style="enable-background:new 0 0 448 512;" xml:space="preserve">
<style type="text/css">
	.st0{fill:#8C737D;}
</style>
<path class="st0" d="M318.8,305.2l-21.4-15.6c-7.2-5.2-17.2-3.6-22.3,3.5c-5.2,7.1-3.6,17.2,3.5,22.3l21.4,15.6
	c8.7,6.3,16.5,13.4,24,20.9H123.1c7.5-7.5,15.3-14.6,24-20.9l170.8-124.3C379.7,162.6,416,91.2,416,16c0-8.8-7.2-16-16-16
	s-16,7.2-16,16c0,5.4-0.5,10.7-1,16H65c-0.4-5.3-1-10.6-1-16c0-8.8-7.2-16-16-16S32,7.2,32,16c0,75.2,36.3,146.6,97.2,190.8
	l67.6,49.2l-67.6,49.2C68.3,349.4,32,420.8,32,496c0,8.8,7.3,15.1,16.1,15.1S64,504.8,64,496c0-5.4,0.5-10.7,1-16h318.1
	c0.4,5.3,0.9,10.6,0.9,16c0,8.8,7.2,16,16,16s16-7.2,16-16C416,420.8,379.7,349.4,318.8,305.2z M378.2,64c-5.6,22.8-15,44.4-27.9,64
	H97.7c-12.8-19.5-22.3-41.2-27.9-64H378.2z M147.1,180.9c-7.8-6.3-15.6-13.4-24-20.9h200c-7.5,7.5-15.3,14.6-24,20.9L224,236.2
	L147.1,180.9z M69.8,448c5.6-22.8,15.1-44.5,27.9-64h252.7c12.8,19.5,22.3,41.2,27.9,64H69.8z"/>
</svg>
