<?xml version="1.0" encoding="utf-8"?>
<!-- Generator: Adobe Illustrator 26.5.0, SVG Export Plug-In . SVG Version: 6.00 Build 0)  -->
<svg version="1.1" id="Layer_1" xmlns="http://www.w3.org/2000/svg" xmlns:xlink="http://www.w3.org/1999/xlink" x="0px" y="0px"
	 viewBox="0 0 512 512" style="enable-background:new 0 0 512 512;" xml:space="preserve">
<style type="text/css">
	.st0{fill:#898989;}
</style>
<path class="st0" d="M80,240c0-22.1,17.9-40,40-40h272c22.1,0,40,17.9,40,40v32c0,22.1-17.9,40-40,40H120c-22.1,0-40-17.9-40-40V240
	z M112,272c0,4.4,3.6,8,8,8h272c4.4,0,8-3.6,8-8v-32c0-4.4-3.6-8-8-8H120c-4.4,0-8,3.6-8,8V272z M512,256c0,141.4-114.6,256-256,256
	S0,397.4,0,256S114.6,0,256,0S512,114.6,512,256z M256,32C132.3,32,32,132.3,32,256s100.3,224,224,224s224-100.3,224-224
	S379.7,32,256,32z"/>
</svg>
