<svg xmlns="http://www.w3.org/2000/svg" width="11in" height="3.8587in" viewBox="0 0 792 277.8244"><path d="M204.2778,111.3126V7.2276h28.2676V109.5607c0,38.5668,15.7762,52.5911,47.99,52.5911,36.3746,0,49.304-20.5984,49.304-56.0972V7.2276h14.6812V108.9038c0,45.5789-23.2285,67.2723-71.4376,67.2723C229.0393,176.1761,204.2778,156.0156,204.2778,111.3126Z" fill="#89717e"/><path d="M512.8055,129.7212V7.2276h14.6813V173.327H512.8055L401.7084,49.0815V173.327H387.0248V7.2276h14.6836Z" fill="#89717e"/><path d="M655.9676,176.1761c-47.55,0-89.6228-33.3088-89.6228-86.5569S608.4177,3.0623,655.9676,3.0623c47.5521,0,89.625,33.3088,89.625,86.5569S703.52,176.1761,655.9676,176.1761Zm-1.3139-12.0534c33.7468,0,59.1652-29.1435,59.1652-81.0777,0-47.9878-28.0486-67.9293-56.7541-67.9293-33.3088,0-58.9463,29.1435-58.9463,81.0777C598.1185,144.1835,626.1671,164.1227,654.6537,164.1227Z" fill="#89717e"/><path d="M163.2969,158.5741V7.2275H135.03V158.5741h-.2232c.0228,1.034.0479,2.0662.0479,3.1216,0,43.2254-25.2637,61.1851-50.9226,61.1851-30.3961,0-53.2912-26.25-53.2912-73.0282,0-27.7921,10.4669-45.0909,24.7981-53.9356L47.6379,85.0621C21.1777,96.6759,2.021,121.68,2.021,155.7741c0,47.9617,37.8964,77.9635,80.728,77.9635,41.1578,0,77.7111-27.73,80.504-72.4556h.0439v-.7828c.0348-.6424.0873-1.2756.1077-1.9251Z" fill="#89717e"/><path d="M223.3285,257.0319A14.2413,14.2413,0,0,1,211.826,251.88q-4.3115-5.1528-4.3121-14.8172a22.7328,22.7328,0,0,1,2.3562-10.6617,17.8983,17.8983,0,0,1,6.2292-6.9882,15.4683,15.4683,0,0,1,8.5063-2.4767,14.6121,14.6121,0,0,1,6.19,1.237,29.1674,29.1674,0,0,1,5.6308,3.5557l-.1593-7.189V198.4058h2.3963v57.6675h-2.0764l-.32-5.1113h-.1593a26.6546,26.6546,0,0,1-5.592,4.2331A14.1692,14.1692,0,0,1,223.3285,257.0319Zm.1593-2.2357a12.9872,12.9872,0,0,0,6.47-1.7591,29.6809,29.6809,0,0,0,6.31-4.9507V224.4443a22.5213,22.5213,0,0,0-5.9909-4.0725,14.6229,14.6229,0,0,0-5.83-1.2,11.9646,11.9646,0,0,0-7.3082,2.3964,16.7193,16.7193,0,0,0-5.1514,6.4688,20.9315,20.9315,0,0,0-1.9171,9.0257q0,7.908,3.474,12.82A11.4449,11.4449,0,0,0,223.4878,254.7962Z" fill="#89717e"/><path d="M268.0557,208.1492a2.3929,2.3929,0,0,1-1.7966-.7979,2.8781,2.8781,0,0,1-.759-2.0751,2.6407,2.6407,0,0,1,.759-1.9572,2.4541,2.4541,0,0,1,1.7966-.76,2.4191,2.4191,0,0,1,1.8368.76,2.7278,2.7278,0,0,1,.7189,1.9572,2.9791,2.9791,0,0,1-.7189,2.0751A2.3587,2.3587,0,0,1,268.0557,208.1492Zm-1.2771,47.9241V217.8952h2.395v38.1781Z" fill="#89717e"/><path d="M305.4346,257.0319a13.7174,13.7174,0,0,1-5.4714-1.0791,9.0017,9.0017,0,0,1-4.0336-3.3548,10.3761,10.3761,0,0,1-1.5168-5.8691q0-6.39,6.07-9.7058,6.0686-3.3134,19.01-4.7525a25.1873,25.1873,0,0,0-.6-6.15,9.5417,9.5417,0,0,0-2.7552-4.9908q-2.0783-1.956-6.0711-1.9573a16.525,16.525,0,0,0-7.347,1.5985,29.33,29.33,0,0,0-5.1127,3.0336l-1.2771-1.9171a32.3887,32.3887,0,0,1,3.2745-2.0349,26.8483,26.8483,0,0,1,4.7914-2.0375,18.8182,18.8182,0,0,1,5.8315-.8783,11.1476,11.1476,0,0,1,7.0284,1.9974,10.5677,10.5677,0,0,1,3.5945,5.2693,23.4653,23.4653,0,0,1,1.0375,7.1087v24.7613h-2.0764l-.3186-5.1113h-.1606a38.092,38.092,0,0,1-6.509,4.2331A15.9113,15.9113,0,0,1,305.4346,257.0319Zm.1593-2.2357a14.7123,14.7123,0,0,0,6.79-1.6788,39.6068,39.6068,0,0,0,7.1087-4.87V234.3483a68.0635,68.0635,0,0,0-13.299,2.5971q-4.9119,1.6347-7.0685,4.0323a8.2,8.2,0,0,0-2.1567,5.6709q0,4.3938,2.5958,6.2707A10.0249,10.0249,0,0,0,305.5939,254.7962Z" fill="#89717e"/><path d="M361.1837,274.7621q-7.2674,0-11.4609-2.9532A9.0758,9.0758,0,0,1,345.53,264.06a9.3512,9.3512,0,0,1,1.5569-5.0309,15.9411,15.9411,0,0,1,4.1929-4.3938v-.3186a7.3553,7.3553,0,0,1-2.395-2.3963,7.45,7.45,0,0,1,.5181-8.1074,13.16,13.16,0,0,1,2.6762-2.5972v-.3186a16.6946,16.6946,0,0,1-3.2746-4.3536,12.6054,12.6054,0,0,1-1.5181-6.19,13.4593,13.4593,0,0,1,1.7577-6.8677,13.1138,13.1138,0,0,1,4.7124-4.7927,12.7321,12.7321,0,0,1,6.6294-1.7565,13.6268,13.6268,0,0,1,2.8756.2785,9.1688,9.1688,0,0,1,2.0764.68h12.78v2.2357H368.852a12.4221,12.4221,0,0,1,3.3549,4.3134,13.3738,13.3738,0,0,1,1.2772,5.9092,13.6937,13.6937,0,0,1-1.7565,6.9105,13.3717,13.3717,0,0,1-4.7123,4.8731,12.5215,12.5215,0,0,1-6.63,1.7965,13.0659,13.0659,0,0,1-3.4352-.4792,12.7388,12.7388,0,0,1-3.1139-1.28,13.5741,13.5741,0,0,0-2.3173,2.4365,5.6679,5.6679,0,0,0-1.0375,3.4754,5.0731,5.0731,0,0,0,1.5569,3.7137q1.5584,1.5582,5.9507,1.5583h8.4662q6.39,0,9.3457,2.075,2.9539,2.0765,2.9546,6.5491a10.1355,10.1355,0,0,1-2.1567,6.1127,15.8641,15.8641,0,0,1-6.11,4.79A21.5118,21.5118,0,0,1,361.1837,274.7621Zm.1607-2.2357a18.7544,18.7544,0,0,0,7.8664-1.5181,13.34,13.34,0,0,0,5.1528-3.9118,8.0663,8.0663,0,0,0,1.8368-4.9533,5.1725,5.1725,0,0,0-2.3562-4.7927q-2.3576-1.4379-6.9093-1.4378h-8.7861c-.2129,0-.7724-.0509-1.6774-.158s-1.89-.2677-2.9546-.4793a12.6217,12.6217,0,0,0-4.1528,4.193,9.0217,9.0217,0,0,0-1.2785,4.4312,7.2714,7.2714,0,0,0,3.474,6.2305Q355.0337,272.5277,361.3444,272.5264Zm-.9586-30.8311a9.91,9.91,0,0,0,5.1917-1.4378,10.9072,10.9072,0,0,0,3.8729-3.9922,12.71,12.71,0,0,0,.04-11.821,10.5061,10.5061,0,0,0-3.8328-3.8743,10.6813,10.6813,0,0,0-12.7006,1.5984,10.8244,10.8244,0,0,0-3.1153,8.1851,11.59,11.59,0,0,0,1.478,5.9118,10.9107,10.9107,0,0,0,3.8743,3.9922A9.9068,9.9068,0,0,0,360.3858,241.6953Z" fill="#89717e"/><path d="M400.0018,256.0733V217.8952H402.08l.3186,6.07h.1607a36.0734,36.0734,0,0,1,6.1876-5.031,12.9547,12.9547,0,0,1,7.0713-1.9974q5.9077,0,8.7044,3.5531t2.7953,10.983v24.6006h-2.3963v-24.282q0-6.3858-2.1554-9.5024t-7.1087-3.1166a11.7838,11.7838,0,0,0-6.5491,1.9171,41.2057,41.2057,0,0,0-6.71,5.7512v29.2327Z" fill="#89717e"/><path d="M468.3712,257.0319a15.9256,15.9256,0,0,1-8.426-2.3562,16.7675,16.7675,0,0,1-6.19-6.83,23.1825,23.1825,0,0,1-2.316-10.7822,23.6307,23.6307,0,0,1,2.316-10.9026,16.74,16.74,0,0,1,6.19-6.8678,15.9256,15.9256,0,0,1,8.426-2.3562,15.7341,15.7341,0,0,1,8.3858,2.3562,17.1336,17.1336,0,0,1,6.19,6.8678,23.3263,23.3263,0,0,1,2.3561,10.9026,22.8851,22.8851,0,0,1-2.3561,10.7822,17.1645,17.1645,0,0,1-6.19,6.83A15.7341,15.7341,0,0,1,468.3712,257.0319Zm0-2.2357a12.7259,12.7259,0,0,0,7.347-2.2384A15.1213,15.1213,0,0,0,480.87,246.33a21.5845,21.5845,0,0,0,1.8769-9.2668,21.8426,21.8426,0,0,0-1.8769-9.3042,15.3947,15.3947,0,0,0-5.1514-6.3108,12.5848,12.5848,0,0,0-7.347-2.2759,12.4166,12.4166,0,0,0-7.31,2.2759,15.8263,15.8263,0,0,0-5.1515,6.3108,21.4505,21.4505,0,0,0-1.9171,9.3042A21.1977,21.1977,0,0,0,455.91,246.33a15.5414,15.5414,0,0,0,5.1515,6.2278A12.5551,12.5551,0,0,0,468.3712,254.7962Z" fill="#89717e"/><path d="M519.01,257.0319a19.11,19.11,0,0,1-7.8289-1.5583,25.1288,25.1288,0,0,1-6.07-3.7137l1.5985-1.9171a28.5815,28.5815,0,0,0,5.2692,3.4754,15.635,15.635,0,0,0,7.1891,1.478q4.7913,0,7.2693-2.4767a7.804,7.804,0,0,0,2.4767-5.6709,6.1842,6.1842,0,0,0-1.478-4.2331,12.2477,12.2477,0,0,0-3.6735-2.7953,38.4134,38.4134,0,0,0-4.4339-1.917q-2.9559-1.0362-5.7512-2.3161a13.77,13.77,0,0,1-4.5919-3.2745,7.5715,7.5715,0,0,1-1.7966-5.272,9.329,9.329,0,0,1,3.0738-6.948q3.0724-2.9559,8.9053-2.956a15.929,15.929,0,0,1,5.711,1.0791,16.5689,16.5689,0,0,1,4.8329,2.7551l-1.4378,1.9171a24.4913,24.4913,0,0,0-4.0725-2.4767,11.9038,11.9038,0,0,0-5.1916-1.0389q-4.7953,0-7.0311,2.3562a7.3485,7.3485,0,0,0-2.2356,5.1515,5.5936,5.5936,0,0,0,1.2771,3.794,10.2754,10.2754,0,0,0,3.3147,2.4766q2.04,1,4.3536,1.8769,3.0363,1.1969,5.9922,2.4365a13.4806,13.4806,0,0,1,4.87,3.3549,8.4177,8.4177,0,0,1,1.9171,5.8691,9.9,9.9,0,0,1-1.4378,5.1916,10.5116,10.5116,0,0,1-4.2331,3.8743A14.3626,14.3626,0,0,1,519.01,257.0319Z" fill="#89717e"/><path d="M562.94,257.0319q-5.2734,0-7.1087-3.0765a15.3067,15.3067,0,0,1-1.8368-7.9467V220.1309h-6.07v-1.9171l6.07-.3186.3186-11.1812h2.0778v11.1812h11.3418v2.2357H556.3906V246.33a12.8277,12.8277,0,0,0,1.2771,6.07q1.2772,2.3937,5.4326,2.3964a9.2954,9.2954,0,0,0,2.5142-.399,16.9931,16.9931,0,0,0,2.4365-.8809l.7979,2.0778q-1.6747.5581-3.3148.9987A10.6811,10.6811,0,0,1,562.94,257.0319Z" fill="#89717e"/><path d="M591.3718,208.1492a2.3888,2.3888,0,0,1-1.7966-.7979,2.8735,2.8735,0,0,1-.76-2.0751,2.6367,2.6367,0,0,1,.76-1.9572,2.45,2.45,0,0,1,1.7966-.76,2.4212,2.4212,0,0,1,1.8368.76,2.7269,2.7269,0,0,1,.7175,1.9572,2.9783,2.9783,0,0,1-.7175,2.0751A2.3607,2.3607,0,0,1,591.3718,208.1492Zm-1.2772,47.9241V217.8952h2.3937v38.1781Z" fill="#89717e"/><path d="M634.34,257.0319a16.5036,16.5036,0,0,1-8.7447-2.3562,16.2375,16.2375,0,0,1-6.11-6.83,23.8812,23.8812,0,0,1-2.2357-10.7822,22.9681,22.9681,0,0,1,2.3964-10.9026,17.2808,17.2808,0,0,1,6.2679-6.8678,15.94,15.94,0,0,1,8.4261-2.3562,13.4128,13.4128,0,0,1,6.6294,1.478,22.2464,22.2464,0,0,1,4.5544,3.3147l-1.5985,1.7565a19.0867,19.0867,0,0,0-4.2331-3.0738,11.1623,11.1623,0,0,0-5.3522-1.24,12.5844,12.5844,0,0,0-7.347,2.2759,15.9712,15.9712,0,0,0-5.2318,6.3108,21.0759,21.0759,0,0,0-1.9573,9.3042,22.4144,22.4144,0,0,0,1.7966,9.2668,14.5683,14.5683,0,0,0,5.0738,6.2278,14.0962,14.0962,0,0,0,13.6579.8809,19.1025,19.1025,0,0,0,4.7123-3.2746l1.4378,1.7565a23.6685,23.6685,0,0,1-5.3924,3.6333A15.051,15.051,0,0,1,634.34,257.0319Z" fill="#89717e"/><path d="M677.9507,257.0319a19.098,19.098,0,0,1-7.8263-1.5583,25.0778,25.0778,0,0,1-6.07-3.7137l1.5958-1.9171a28.6063,28.6063,0,0,0,5.2719,3.4754,15.6347,15.6347,0,0,0,7.1891,1.478q4.7913,0,7.2666-2.4767a7.7936,7.7936,0,0,0,2.4767-5.6709,6.1717,6.1717,0,0,0-1.478-4.2331,12.214,12.214,0,0,0-3.6735-2.7953,38.02,38.02,0,0,0-4.4339-1.917q-2.9559-1.0362-5.7485-2.3161a13.781,13.781,0,0,1-4.5946-3.2745,7.5842,7.5842,0,0,1-1.7966-5.272,9.3318,9.3318,0,0,1,3.0765-6.948q3.0723-2.9559,8.9053-2.956a15.94,15.94,0,0,1,5.711,1.0791,16.5885,16.5885,0,0,1,4.83,2.7551l-1.4378,1.9171a24.4913,24.4913,0,0,0-4.0725-2.4767,11.8955,11.8955,0,0,0-5.1916-1.0389q-4.7913,0-7.0284,2.3562a7.3486,7.3486,0,0,0-2.2357,5.1515,5.5937,5.5937,0,0,0,1.2772,3.794,10.2754,10.2754,0,0,0,3.3147,2.4766q2.0362,1,4.3536,1.8769,3.0322,1.1969,5.9895,2.4365a13.4915,13.4915,0,0,1,4.873,3.3549,8.4305,8.4305,0,0,1,1.9171,5.8691,9.9,9.9,0,0,1-1.4378,5.1916,10.5123,10.5123,0,0,1-4.2331,3.8743A14.3815,14.3815,0,0,1,677.9507,257.0319Z" fill="#89717e"/><path d="M765.77,21.31V10.0971h-4.4111V8.6547h10.43v1.4424h-4.4522V21.31Zm8.1621,0V8.6547h2.1436l2.1436,5.1939,1.2783,3.5449h.165l1.2774-3.5449,2.0615-5.1939h2.1435V21.31h-1.5254V14.6728l.2061-4.04h-.165l-3.4219,8.6978h-1.4014l-3.4209-8.6978h-.165l.206,4.04V21.31Z" fill="#89717e"/></svg>