<?xml version="1.0" encoding="utf-8"?>
<!-- Generator: Adobe Illustrator 26.5.0, SVG Export Plug-In . SVG Version: 6.00 Build 0)  -->
<svg version="1.1" id="Layer_1" xmlns="http://www.w3.org/2000/svg" xmlns:xlink="http://www.w3.org/1999/xlink" x="0px" y="0px"
	 viewBox="0 0 448 512" style="enable-background:new 0 0 448 512;" xml:space="preserve">
<style type="text/css">
	.st0{fill:#7DA1A8;}
</style>
<path class="st0" d="M446.8,41.9c-1.6-3.9-4.7-7-8.7-8.7c-2-0.8-4-1.2-6.1-1.2H304c-8.8,0-16,7.2-16,16s7.2,16,16,16h89.4
	L288.6,168.8C258.1,143.3,218.8,128,176,128C78.8,128,0,206.8,0,304s78.8,176,176,176s176-78.8,176-176c0-42.8-15.3-82.1-40.8-112.6
	L416,86.6V176c0,8.8,7.2,16,16,16s16-7.2,16-16V48C448,45.9,447.6,43.8,446.8,41.9z M320,304c0,79.4-64.6,144-144,144
	S32,383.4,32,304s64.6-144,144-144S320,224.6,320,304z"/>
</svg>
