<?xml version="1.0" encoding="UTF-8"?><svg id="Layer_2" xmlns="http://www.w3.org/2000/svg" xmlns:xlink="http://www.w3.org/1999/xlink" viewBox="0 0 16.14 58.7"><defs><style>.cls-1{fill:none;}.cls-2{clip-path:url(#clippath);}.cls-3{fill:#8a727d;}</style><clipPath id="clippath"><rect class="cls-1" width="16.14" height="58.7"/></clipPath></defs><g id="Layer_1-2"><g class="cls-2"><path class="cls-3" d="M1.6,0C.71,0,0,.71,0,1.59s.71,1.6,1.59,1.6h3.25c.88,0,1.59-.72,1.59-1.6S5.72,0,4.84,0H1.6Z"/><path class="cls-3" d="M11.29,.25c-.88,0-1.59,.71-1.59,1.59s.71,1.6,1.59,1.6h3.25c.88,0,1.59-.72,1.59-1.6s-.71-1.59-1.59-1.59h-3.25Z"/><path class="cls-3" d="M2,5.36h2.44c1.1,0,2,.9,2,2V56.44c0,1.1-.9,2-2,2H2C.9,58.45,0,57.55,0,56.44V7.36C0,6.26,.9,5.36,2,5.36Z"/><path class="cls-3" d="M11.7,5.61h2.44c1.1,0,2,.9,2,2V56.7c0,1.1-.9,2-2,2h-2.44c-1.1,0-2-.9-2-2V7.62c0-1.1,.9-2,2-2Z"/><path class="cls-3" d="M2.62,3.06c-.88,0-1.59,.71-1.59,1.59s.71,1.6,1.59,1.6h1.21c.88,0,1.59-.72,1.59-1.6s-.71-1.59-1.59-1.59h-1.21Z"/><path class="cls-3" d="M12.31,3.32c-.88,0-1.59,.71-1.59,1.59s.71,1.6,1.59,1.6h1.21c.88,0,1.59-.72,1.59-1.6s-.71-1.59-1.59-1.59h-1.21Z"/></g></g></svg>