<?xml version="1.0" encoding="UTF-8"?><svg id="Layer_2" xmlns="http://www.w3.org/2000/svg" xmlns:xlink="http://www.w3.org/1999/xlink" viewBox="0 0 25.72 28.39"><defs><style>.cls-1{fill:none;}.cls-2{clip-path:url(#clippath);}.cls-3{fill:#8a727d;}</style><clipPath id="clippath"><rect class="cls-1" width="25.72" height="28.39"/></clipPath></defs><g id="Layer_1-2"><g class="cls-2"><path class="cls-3" d="M11.65,5.8h2.42c1.1,0,2,.9,2,2V26.39c0,1.1-.9,2-2,2h-2.42c-1.1,0-2-.9-2-2V7.8c0-1.1,.9-2,2-2Z"/><path class="cls-3" d="M11.24,0C10.37,0,9.65,.71,9.65,1.59s.71,1.59,1.59,1.59h3.24c.88,0,1.59-.71,1.59-1.59S15.36,0,14.48,0h-3.24Z"/><path class="cls-3" d="M12.16,3.05c-.88,0-1.59,.71-1.59,1.59s.71,1.59,1.59,1.59h1.2c.88,0,1.59-.71,1.59-1.59s-.71-1.59-1.59-1.59h-1.2Z"/><path class="cls-3" d="M21.31,5.8h2.42c1.1,0,2,.9,2,2V26.39c0,1.1-.9,2-2,2h-2.42c-1.1,0-2-.9-2-2V7.8c0-1.1,.9-2,2-2Z"/><path class="cls-3" d="M20.9,0c-.88,0-1.59,.71-1.59,1.59s.71,1.59,1.59,1.59h3.24c.88,0,1.59-.71,1.59-1.59S25.01,0,24.14,0h-3.24Z"/><path class="cls-3" d="M21.81,3.05c-.88,0-1.59,.71-1.59,1.59s.71,1.59,1.59,1.59h1.2c.88,0,1.59-.71,1.59-1.59s-.71-1.59-1.59-1.59h-1.2Z"/><path class="cls-3" d="M2,5.8h2.42c1.1,0,2,.9,2,2V26.39c0,1.1-.9,2-2,2H2C.9,28.39,0,27.5,0,26.39V7.8C0,6.7,.9,5.8,2,5.8Z"/><path class="cls-3" d="M1.59,0C.71,0,0,.71,0,1.59s.71,1.59,1.59,1.59h3.24c.88,0,1.59-.71,1.59-1.59S5.71,0,4.83,0H1.59Z"/><path class="cls-3" d="M2.51,3.05c-.88,0-1.59,.71-1.59,1.59s.71,1.59,1.59,1.59h1.2c.88,0,1.59-.71,1.59-1.59s-.71-1.59-1.59-1.59h-1.2Z"/></g></g></svg>