<?xml version="1.0" encoding="UTF-8"?><svg id="Layer_2" xmlns="http://www.w3.org/2000/svg" xmlns:xlink="http://www.w3.org/1999/xlink" viewBox="0 0 16.14 28.7"><defs><style>.cls-1{fill:none;}.cls-2{clip-path:url(#clippath);}.cls-3{fill:#8a727d;}</style><clipPath id="clippath"><rect class="cls-1" width="16.14" height="28.7"/></clipPath></defs><g id="Layer_1-2"><g class="cls-2"><path class="cls-3" d="M11.72,5.8h2.42c1.1,0,2,.9,2,2V26.39c0,1.1-.9,2-2,2h-2.42c-1.1,0-2-.9-2-2V7.8c0-1.1,.9-2,2-2Z"/><path class="cls-3" d="M2,6.11h2.42c1.1,0,2,.9,2,2V26.7c0,1.1-.9,2-2,2H2C.9,28.7,0,27.8,0,26.7V8.11C0,7,.9,6.11,2,6.11Z"/><path class="cls-3" d="M11.31,0C10.43,0,9.72,.71,9.72,1.59s.71,1.59,1.59,1.59h3.24c.88,0,1.59-.71,1.59-1.59S15.42,0,14.55,0h-3.24Z"/><path class="cls-3" d="M1.59,.3C.71,.3,0,1.02,0,1.89s.71,1.59,1.59,1.59h3.24c.88,0,1.59-.71,1.59-1.59s-.71-1.59-1.59-1.59H1.59Z"/><path class="cls-3" d="M12.23,3.05c-.88,0-1.59,.71-1.59,1.59s.71,1.59,1.59,1.59h1.2c.88,0,1.59-.71,1.59-1.59s-.71-1.59-1.59-1.59h-1.2Z"/><path class="cls-3" d="M2.51,3.36c-.88,0-1.59,.71-1.59,1.59s.71,1.59,1.59,1.59h1.2c.88,0,1.59-.71,1.59-1.59s-.71-1.59-1.59-1.59h-1.2Z"/></g></g></svg>