<?xml version="1.0" encoding="UTF-8"?><svg id="Layer_2" xmlns="http://www.w3.org/2000/svg" xmlns:xlink="http://www.w3.org/1999/xlink" viewBox="0 0 18.88 41.46"><defs><style>.cls-1{fill:none;}.cls-2{clip-path:url(#clippath);}.cls-3{fill:#8a727d;}</style><clipPath id="clippath"><rect class="cls-1" width="18.88" height="41.46"/></clipPath></defs><g id="Layer_1-2"><g class="cls-2"><path class="cls-3" d="M2.34,0C1.05,0,0,.9,0,2v6.36C0,9.47,1.05,10.37,2.34,10.37h2.78c1.29,0,2.34-.9,2.34-2V2C7.46,.9,6.41,0,5.12,0H2.34Z"/><path class="cls-3" d="M13.73,0C12.44,0,11.39,.9,11.39,2v6.36c0,1.11,1.05,2,2.34,2h2.78c1.29,0,2.34-.9,2.34-2V2C18.85,.9,17.8,0,16.51,0h-2.78Z"/><path class="cls-3" d="M2.37,12.89C1.08,12.89,.03,13.79,.03,14.9v24.57c0,1.11,1.05,2,2.34,2h2.78c1.29,0,2.34-.89,2.34-2V14.9c0-1.11-1.05-2-2.34-2H2.37Z"/><path class="cls-3" d="M13.76,12.89c-1.29,0-2.34,.9-2.34,2v24.57c0,1.11,1.05,2,2.34,2h2.78c1.29,0,2.34-.89,2.34-2V14.9c0-1.11-1.05-2-2.34-2h-2.78Z"/><path class="cls-3" d="M3.03,9.86c-1.02,0-1.85,.71-1.85,1.58s.83,1.58,1.85,1.58h1.4c1.02,0,1.85-.71,1.85-1.58s-.83-1.58-1.85-1.58h-1.4Z"/><path class="cls-3" d="M14.42,9.86c-1.02,0-1.85,.71-1.85,1.58s.83,1.58,1.85,1.58h1.4c1.02,0,1.85-.71,1.85-1.58s-.83-1.58-1.85-1.58h-1.4Z"/></g></g></svg>