<?xml version="1.0" encoding="utf-8"?>
<!-- Generator: Adobe Illustrator 26.5.0, SVG Export Plug-In . SVG Version: 6.00 Build 0)  -->
<svg version="1.1" id="Layer_1" xmlns="http://www.w3.org/2000/svg" xmlns:xlink="http://www.w3.org/1999/xlink" x="0px" y="0px"
	 viewBox="0 0 384 512" style="enable-background:new 0 0 384 512;" xml:space="preserve">
<style type="text/css">
	.st0{fill:#EAB0BD;}
</style>
<path class="st0" d="M368,176C368,78.8,289.2,0,192,0S16,78.8,16,176c0,91.8,70.3,167.1,160,175.2V400h-64c-8.8,0-16,7.2-16,16
	s7.2,16,16,16h64v64c0,8.8,7.2,16,16,16s16-7.2,16-16v-64h64c8.8,0,16-7.2,16-16s-7.2-16-16-16h-64v-48.8
	C297.7,343.1,368,267.8,368,176z M48,176c0-79.4,64.6-144,144-144s144,64.6,144,144s-64.6,144-144,144S48,255.4,48,176z"/>
</svg>
