<?xml version="1.0" encoding="utf-8"?>
<!-- Generator: Adobe Illustrator 27.0.0, SVG Export Plug-In . SVG Version: 6.00 Build 0)  -->
<svg version="1.1" id="Layer_2_00000099634025169937826180000002450018866775836068_"
	 xmlns="http://www.w3.org/2000/svg" xmlns:xlink="http://www.w3.org/1999/xlink" x="0px" y="0px" viewBox="0 0 20.9 66.2"
	 style="enable-background:new 0 0 18.9 66.2;" xml:space="preserve">
<style type="text/css">
	.st0{fill:#8A727D;}
	.st1{fill:#231F20;}
	.st2{font-family:'SourceSansPro-Light';}
	.st3{font-size:12px;}
</style>
<g>
	<path class="st0" d="M3.2,0.2c-1,0-1.7,1.7-1.7,3.7v11.8c0,2,0.8,3.7,1.7,3.7h2.1c1,0,1.7-1.7,1.7-3.7V3.9c0-2-0.8-3.7-1.7-3.7H3.2
		z"/>
	<path class="st0" d="M3.2,21.3c-1,0-1.7,1.1-1.7,2.3v28.8c0,1.3,0.8,2.3,1.7,2.3h2.1c1,0,1.7-1,1.7-2.3V23.6c0-1.3-0.8-2.3-1.7-2.3
		H3.2z"/>
	<path class="st0" d="M3.7,19c-0.8,0-1.4,0.5-1.4,1.2c0,0.6,0.6,1.2,1.4,1.2h1c0.8,0,1.4-0.5,1.4-1.2c0-0.6-0.6-1.2-1.4-1.2H3.7z"/>
</g>
<g>
	<path class="st0" d="M14.2,36.1c-1,0-1.7,0.6-1.7,1.3v4.1c0,0.7,0.8,1.3,1.7,1.3h2.1c1,0,1.7-0.6,1.7-1.3v-4.1
		c0-0.7-0.8-1.3-1.7-1.3H14.2z"/>
	<path class="st0" d="M14.3,44.2c-1,0-1.7,0.3-1.7,0.7V54c0,0.4,0.8,0.7,1.7,0.7h2.1c1,0,1.7-0.3,1.7-0.7v-9.1
		c0-0.4-0.8-0.7-1.7-0.7H14.3z"/>
	<path class="st0" d="M14.8,42.2c-0.8,0-1.4,0.5-1.4,1.2c0,0.6,0.6,1.2,1.4,1.2h1c0.8,0,1.4-0.5,1.4-1.2c0-0.6-0.6-1.2-1.4-1.2H14.8
		z"/>
</g>
<g>
	<text transform="matrix(1 0 0 1 1.4609 65.8598)" class="st1 st2 st3">X</text>
</g>
<g>
	<text transform="matrix(1 0 0 1 12.5078 65.8597)" class="st1 st2 st3">Y</text>
</g>
</svg>
